<svg xmlns="http://www.w3.org/2000/svg" xmlns:xlink="http://www.w3.org/1999/xlink" xmlns:s="https://github.com/nturley/netlistsvg" width="1005" height="473.5">
  <style>svg {
    stroke:#000;
    fill:none;
  }
  text {
    fill:#000;
    stroke:none;
    font-size:10px;
    font-weight: bold;
    font-family: "Courier New", monospace;
  }
  .nodelabel {
    text-anchor: middle;
  }
  .inputPortLabel {
    text-anchor: end;
  }
  .splitjoinBody {
    fill:#000;
  }</style>
  <g s:type="eq" transform="translate(348.6666666666667,45)" s:width="25" s:height="25" id="cell_$eq$skid_buf.sv:47$1">
    <s:alias val="$eq"/>
    <circle r="12.5" cx="12.5" cy="12.5" class="cell_$eq$skid_buf.sv:47$1"/>
    <line x1="7.5" x2="17.5" y1="10" y2="10" class="cell_$eq$skid_buf.sv:47$1"/>
    <line x1="7.5" x2="17.5" y1="15" y2="15" class="cell_$eq$skid_buf.sv:47$1"/>
    <g s:x="3" s:y="5" s:pid="A"/>
    <g s:x="3" s:y="20" s:pid="B"/>
    <g s:x="25" s:y="12.5" s:pid="Y"/>
  </g>
  <g s:type="eq" transform="translate(287,122.5)" s:width="25" s:height="25" id="cell_$eq$skid_buf.sv:47$2">
    <s:alias val="$eq"/>
    <circle r="12.5" cx="12.5" cy="12.5" class="cell_$eq$skid_buf.sv:47$2"/>
    <line x1="7.5" x2="17.5" y1="10" y2="10" class="cell_$eq$skid_buf.sv:47$2"/>
    <line x1="7.5" x2="17.5" y1="15" y2="15" class="cell_$eq$skid_buf.sv:47$2"/>
    <g s:x="3" s:y="5" s:pid="A"/>
    <g s:x="3" s:y="20" s:pid="B"/>
    <g s:x="25" s:y="12.5" s:pid="Y"/>
  </g>
  <g s:type="and" transform="translate(412,95)" s:width="30" s:height="25" id="cell_$logic_and$skid_buf.sv:47$4">
    <s:alias val="$and"/>
    <s:alias val="$logic_and"/>
    <s:alias val="$_AND_"/>
    <path d="M0,0 L0,25 L15,25 A15 12.5 0 0 0 15,0 Z" class="cell_$logic_and$skid_buf.sv:47$4"/>
    <g s:x="0" s:y="5" s:pid="A"/>
    <g s:x="0" s:y="20" s:pid="B"/>
    <g s:x="30" s:y="12.5" s:pid="Y"/>
  </g>
  <g s:type="and" transform="translate(645,115)" s:width="30" s:height="25" id="cell_$logic_and$skid_buf.sv:49$7">
    <s:alias val="$and"/>
    <s:alias val="$logic_and"/>
    <s:alias val="$_AND_"/>
    <path d="M0,0 L0,25 L15,25 A15 12.5 0 0 0 15,0 Z" class="cell_$logic_and$skid_buf.sv:49$7"/>
    <g s:x="0" s:y="5" s:pid="A"/>
    <g s:x="0" s:y="20" s:pid="B"/>
    <g s:x="30" s:y="12.5" s:pid="Y"/>
  </g>
  <g s:type="and" transform="translate(643,325.5)" s:width="30" s:height="25" id="cell_$logic_and$skid_buf.sv:51$8">
    <s:alias val="$and"/>
    <s:alias val="$logic_and"/>
    <s:alias val="$_AND_"/>
    <path d="M0,0 L0,25 L15,25 A15 12.5 0 0 0 15,0 Z" class="cell_$logic_and$skid_buf.sv:51$8"/>
    <g s:x="0" s:y="5" s:pid="A"/>
    <g s:x="0" s:y="20" s:pid="B"/>
    <g s:x="30" s:y="12.5" s:pid="Y"/>
  </g>
  <g s:type="and" transform="translate(923,172.5)" s:width="30" s:height="25" id="cell_$logic_and$skid_buf.sv:53$9">
    <s:alias val="$and"/>
    <s:alias val="$logic_and"/>
    <s:alias val="$_AND_"/>
    <path d="M0,0 L0,25 L15,25 A15 12.5 0 0 0 15,0 Z" class="cell_$logic_and$skid_buf.sv:53$9"/>
    <g s:x="0" s:y="5" s:pid="A"/>
    <g s:x="0" s:y="20" s:pid="B"/>
    <g s:x="30" s:y="12.5" s:pid="Y"/>
  </g>
  <g s:type="not" transform="translate(477,97.5)" s:width="30" s:height="20" id="cell_$logic_not$skid_buf.sv:88$10">
    <s:alias val="$_NOT_"/>
    <s:alias val="$not"/>
    <s:alias val="$logic_not"/>
    <path d="M0,0 L0,20 L20,10 Z" class="cell_$logic_not$skid_buf.sv:88$10"/>
    <circle cx="23" cy="10" r="3" class="cell_$logic_not$skid_buf.sv:88$10"/>
    <g s:x="0" s:y="10" s:pid="A"/>
    <g s:x="25" s:y="10" s:pid="Y"/>
  </g>
  <g s:type="not" transform="translate(799.5,117.5)" s:width="30" s:height="20" id="cell_$logic_not$skid_buf.sv:89$12">
    <s:alias val="$_NOT_"/>
    <s:alias val="$not"/>
    <s:alias val="$logic_not"/>
    <path d="M0,0 L0,20 L20,10 Z" class="cell_$logic_not$skid_buf.sv:89$12"/>
    <circle cx="23" cy="10" r="3" class="cell_$logic_not$skid_buf.sv:89$12"/>
    <g s:x="0" s:y="10" s:pid="A"/>
    <g s:x="25" s:y="10" s:pid="Y"/>
  </g>
  <g s:type="not" transform="translate(347,105)" s:width="30" s:height="20" id="cell_$not$skid_buf.sv:47$3">
    <s:alias val="$_NOT_"/>
    <s:alias val="$not"/>
    <s:alias val="$logic_not"/>
    <path d="M0,0 L0,20 L20,10 Z" class="cell_$not$skid_buf.sv:47$3"/>
    <circle cx="23" cy="10" r="3" class="cell_$not$skid_buf.sv:47$3"/>
    <g s:x="0" s:y="10" s:pid="A"/>
    <g s:x="25" s:y="10" s:pid="Y"/>
  </g>
  <g s:type="mux" transform="translate(555.3333333333334,360.5)" s:width="20" s:height="40" id="cell_$ternary$skid_buf.sv:88$11">
    <s:alias val="$pmux"/>
    <s:alias val="$mux"/>
    <s:alias val="$_MUX_"/>
    <path d="M0,0 L20,10 L20,30 L0,40 Z" class="cell_$ternary$skid_buf.sv:88$11"/>
    <g s:x="0" s:y="10" s:pid="A"/>
    <g s:x="0" s:y="30" s:pid="B"/>
    <g s:x="10" s:y="35" s:pid="S"/>
    <g s:x="20" s:y="20" s:pid="Y"/>
  </g>
  <g s:type="generic" transform="translate(802,247.5)" s:width="30" s:height="40" id="cell_r_fifo_buf">
    <text x="15" y="-4" class="nodelabel cell_r_fifo_buf" s:attribute="ref">r_fifo_buf</text>
    <rect width="30" height="120" s:generic="body" class="cell_r_fifo_buf"/>
    <g transform="translate(0,10)" s:x="0" s:y="10" s:pid="in0" id="port_r_fifo_buf~i_clk">
      <text x="-3" y="-4" class="inputPortLabel cell_r_fifo_buf">i_clk</text>
    </g>
    <g transform="translate(0,30)" s:x="0" s:y="10" s:pid="in0" id="port_r_fifo_buf~i_rd_idx">
      <text x="-3" y="-4" class="inputPortLabel cell_r_fifo_buf">i_rd_idx</text>
    </g>
    <g transform="translate(0,50)" s:x="0" s:y="10" s:pid="in0" id="port_r_fifo_buf~i_sync_rst">
      <text x="-3" y="-4" class="inputPortLabel cell_r_fifo_buf">i_sync_rst</text>
    </g>
    <g transform="translate(0,70)" s:x="0" s:y="10" s:pid="in0" id="port_r_fifo_buf~i_wr_data">
      <text x="-3" y="-4" class="inputPortLabel cell_r_fifo_buf">i_wr_data</text>
    </g>
    <g transform="translate(0,90)" s:x="0" s:y="10" s:pid="in0" id="port_r_fifo_buf~i_wr_en">
      <text x="-3" y="-4" class="inputPortLabel cell_r_fifo_buf">i_wr_en</text>
    </g>
    <g transform="translate(0,110)" s:x="0" s:y="10" s:pid="in0" id="port_r_fifo_buf~i_wr_idx">
      <text x="-3" y="-4" class="inputPortLabel cell_r_fifo_buf">i_wr_idx</text>
    </g>
    <g transform="translate(30,10)" s:x="30" s:y="10" s:pid="out0" id="port_r_fifo_buf~o_rd_data">
      <text x="5" y="-4" style="fill:#000; stroke:none" class="cell_r_fifo_buf">o_rd_data</text>
    </g>
  </g>
  <g s:type="generic" transform="translate(173,97)" s:width="30" s:height="40" id="cell_r_rd_ptr">
    <text x="15" y="-4" class="nodelabel cell_r_rd_ptr" s:attribute="ref">r_rd_ptr</text>
    <rect width="30" height="60" s:generic="body" class="cell_r_rd_ptr"/>
    <g transform="translate(0,10)" s:x="0" s:y="10" s:pid="in0" id="port_r_rd_ptr~i_clk">
      <text x="-3" y="-4" class="inputPortLabel cell_r_rd_ptr">i_clk</text>
    </g>
    <g transform="translate(0,30)" s:x="0" s:y="10" s:pid="in0" id="port_r_rd_ptr~i_pop_en">
      <text x="-3" y="-4" class="inputPortLabel cell_r_rd_ptr">i_pop_en</text>
    </g>
    <g transform="translate(0,50)" s:x="0" s:y="10" s:pid="in0" id="port_r_rd_ptr~i_sync_rst">
      <text x="-3" y="-4" class="inputPortLabel cell_r_rd_ptr">i_sync_rst</text>
    </g>
    <g transform="translate(30,10)" s:x="30" s:y="10" s:pid="out0" id="port_r_rd_ptr~o_idx">
      <text x="5" y="-4" style="fill:#000; stroke:none" class="cell_r_rd_ptr">o_idx</text>
    </g>
    <g transform="translate(30,30)" s:x="30" s:y="10" s:pid="out0" id="port_r_rd_ptr~o_phase">
      <text x="5" y="-4" style="fill:#000; stroke:none" class="cell_r_rd_ptr">o_phase</text>
    </g>
  </g>
  <g s:type="generic" transform="translate(173,242.5)" s:width="30" s:height="40" id="cell_r_wr_ptr">
    <text x="15" y="-4" class="nodelabel cell_r_wr_ptr" s:attribute="ref">r_wr_ptr</text>
    <rect width="30" height="60" s:generic="body" class="cell_r_wr_ptr"/>
    <g transform="translate(0,10)" s:x="0" s:y="10" s:pid="in0" id="port_r_wr_ptr~i_clk">
      <text x="-3" y="-4" class="inputPortLabel cell_r_wr_ptr">i_clk</text>
    </g>
    <g transform="translate(0,30)" s:x="0" s:y="10" s:pid="in0" id="port_r_wr_ptr~i_push_en">
      <text x="-3" y="-4" class="inputPortLabel cell_r_wr_ptr">i_push_en</text>
    </g>
    <g transform="translate(0,50)" s:x="0" s:y="10" s:pid="in0" id="port_r_wr_ptr~i_sync_rst">
      <text x="-3" y="-4" class="inputPortLabel cell_r_wr_ptr">i_sync_rst</text>
    </g>
    <g transform="translate(30,10)" s:x="30" s:y="10" s:pid="out0" id="port_r_wr_ptr~o_idx">
      <text x="5" y="-4" style="fill:#000; stroke:none" class="cell_r_wr_ptr">o_idx</text>
    </g>
    <g transform="translate(30,30)" s:x="30" s:y="10" s:pid="out0" id="port_r_wr_ptr~o_phase">
      <text x="5" y="-4" style="fill:#000; stroke:none" class="cell_r_wr_ptr">o_phase</text>
    </g>
  </g>
  <g s:type="inputExt" transform="translate(12,243)" s:width="30" s:height="20" id="cell_i_clk">
    <text x="15" y="-4" class="nodelabel cell_i_clk" s:attribute="ref">i_clk</text>
    <s:alias val="$_inputExt_"/>
    <path d="M0,0 L0,20 L15,20 L30,10 L15,0 Z" class="cell_i_clk"/>
    <g s:x="28" s:y="10" s:pid="Y"/>
  </g>
  <g s:type="inputExt" transform="translate(12,411.5)" s:width="30" s:height="20" id="cell_i_sync_rst">
    <text x="15" y="-4" class="nodelabel cell_i_sync_rst" s:attribute="ref">i_sync_rst</text>
    <s:alias val="$_inputExt_"/>
    <path d="M0,0 L0,20 L15,20 L30,10 L15,0 Z" class="cell_i_sync_rst"/>
    <g s:x="28" s:y="10" s:pid="Y"/>
  </g>
  <g s:type="inputExt" transform="translate(542,441.5)" s:width="30" s:height="20" id="cell_i_us_valid">
    <text x="15" y="-4" class="nodelabel cell_i_us_valid" s:attribute="ref">i_us_valid</text>
    <s:alias val="$_inputExt_"/>
    <path d="M0,0 L0,20 L15,20 L30,10 L15,0 Z" class="cell_i_us_valid"/>
    <g s:x="28" s:y="10" s:pid="Y"/>
  </g>
  <g s:type="inputExt" transform="translate(637,431.5)" s:width="30" s:height="20" id="cell_i_us_data">
    <text x="15" y="-4" class="nodelabel cell_i_us_data" s:attribute="ref">i_us_data</text>
    <s:alias val="$_inputExt_"/>
    <path d="M0,0 L0,20 L15,20 L30,10 L15,0 Z" class="cell_i_us_data"/>
    <g s:x="28" s:y="10" s:pid="Y"/>
  </g>
  <g s:type="outputExt" transform="translate(923,370.5)" s:width="30" s:height="20" id="cell_o_us_ready">
    <text x="15" y="-4" class="nodelabel cell_o_us_ready" s:attribute="ref">o_us_ready</text>
    <s:alias val="$_outputExt_"/>
    <path d="M30,0 L30,20 L15,20 L0,10 L15,0 Z" class="cell_o_us_ready"/>
    <g s:x="0" s:y="10" s:pid="A"/>
  </g>
  <g s:type="inputExt" transform="translate(802,182.5)" s:width="30" s:height="20" id="cell_i_ds_ready">
    <text x="15" y="-4" class="nodelabel cell_i_ds_ready" s:attribute="ref">i_ds_ready</text>
    <s:alias val="$_inputExt_"/>
    <path d="M0,0 L0,20 L15,20 L30,10 L15,0 Z" class="cell_i_ds_ready"/>
    <g s:x="28" s:y="10" s:pid="Y"/>
  </g>
  <g s:type="outputExt" transform="translate(923,248)" s:width="30" s:height="20" id="cell_o_ds_data">
    <text x="15" y="-4" class="nodelabel cell_o_ds_data" s:attribute="ref">o_ds_data</text>
    <s:alias val="$_outputExt_"/>
    <path d="M30,0 L30,20 L15,20 L0,10 L15,0 Z" class="cell_o_ds_data"/>
    <g s:x="0" s:y="10" s:pid="A"/>
  </g>
  <g s:type="outputExt" transform="translate(923,117.5)" s:width="30" s:height="20" id="cell_o_ds_valid">
    <text x="15" y="-4" class="nodelabel cell_o_ds_valid" s:attribute="ref">o_ds_valid</text>
    <s:alias val="$_outputExt_"/>
    <path d="M30,0 L30,20 L15,20 L0,10 L15,0 Z" class="cell_o_ds_valid"/>
    <g s:x="0" s:y="10" s:pid="A"/>
  </g>
  <g s:type="constant" transform="translate(477,380.5)" s:width="30" s:height="20" id="cell_0">
    <text x="15" y="-4" class="nodelabel cell_0" s:attribute="ref">0</text>
    <s:alias val="$_constant_"/>
    <rect width="30" height="20" class="cell_0"/>
    <g s:x="30" s:y="10" s:pid="Y"/>
  </g>
  <line x1="204" x2="257" y1="107.5" y2="107.5" class="net_24"/>
  <line x1="257" x2="257" y1="107.5" y2="34" class="net_24"/>
  <line x1="257" x2="322" y1="34" y2="34" class="net_24"/>
  <line x1="322" x2="322" y1="34" y2="50" class="net_24"/>
  <circle cx="322" cy="34" r="2" style="fill:#000" class="net_24"/>
  <line x1="322" x2="351.6666666666667" y1="50" y2="50" class="net_24"/>
  <line x1="204" x2="257" y1="107.5" y2="107.5" class="net_24"/>
  <line x1="257" x2="257" y1="107.5" y2="34" class="net_24"/>
  <line x1="257" x2="721" y1="34" y2="34" class="net_24"/>
  <line x1="721" x2="721" y1="34" y2="278" class="net_24"/>
  <line x1="721" x2="802" y1="278" y2="278" class="net_24"/>
  <line x1="204" x2="267" y1="253" y2="253" class="net_25"/>
  <line x1="267" x2="267" y1="253" y2="65" class="net_25"/>
  <circle cx="267" cy="253" r="2" style="fill:#000" class="net_25"/>
  <line x1="267" x2="351.6666666666667" y1="65" y2="65" class="net_25"/>
  <line x1="204" x2="711" y1="253" y2="253" class="net_25"/>
  <line x1="711" x2="711" y1="253" y2="358" class="net_25"/>
  <line x1="711" x2="802" y1="358" y2="358" class="net_25"/>
  <line x1="204" x2="290" y1="127.5" y2="127.5" class="net_27"/>
  <line x1="204" x2="277" y1="273" y2="273" class="net_28"/>
  <line x1="277" x2="277" y1="273" y2="142.5" class="net_28"/>
  <line x1="277" x2="290" y1="142.5" y2="142.5" class="net_28"/>
  <line x1="373.6666666666667" x2="387" y1="57.5" y2="57.5" class="net_26"/>
  <line x1="387" x2="387" y1="57.5" y2="100" class="net_26"/>
  <circle cx="387" cy="57.5" r="2" style="fill:#000" class="net_26"/>
  <line x1="387" x2="412" y1="100" y2="100" class="net_26"/>
  <line x1="373.6666666666667" x2="612" y1="57.5" y2="57.5" class="net_26"/>
  <line x1="612" x2="612" y1="57.5" y2="120" class="net_26"/>
  <line x1="612" x2="645" y1="120" y2="120" class="net_26"/>
  <line x1="372" x2="412" y1="115" y2="115" class="net_30"/>
  <line x1="312" x2="645" y1="135" y2="135" class="net_29"/>
  <line x1="312" x2="322" y1="135" y2="135" class="net_29"/>
  <line x1="322" x2="322" y1="135" y2="115" class="net_29"/>
  <circle cx="322" cy="135" r="2" style="fill:#000" class="net_29"/>
  <line x1="322" x2="347" y1="115" y2="115" class="net_29"/>
  <line x1="570" x2="612" y1="451.5" y2="451.5" class="net_4"/>
  <line x1="612" x2="612" y1="451.5" y2="330.5" class="net_4"/>
  <line x1="612" x2="643" y1="330.5" y2="330.5" class="net_4"/>
  <line x1="575.3333333333334" x2="622" y1="380.5" y2="380.5" class="net_13"/>
  <line x1="622" x2="622" y1="380.5" y2="345.5" class="net_13"/>
  <circle cx="622" cy="380.5" r="2" style="fill:#000" class="net_13"/>
  <line x1="622" x2="643" y1="345.5" y2="345.5" class="net_13"/>
  <line x1="575.3333333333334" x2="923" y1="380.5" y2="380.5" class="net_13"/>
  <line x1="824.5" x2="898" y1="127.5" y2="127.5" class="net_23"/>
  <line x1="898" x2="898" y1="127.5" y2="177.5" class="net_23"/>
  <circle cx="898" cy="127.5" r="2" style="fill:#000" class="net_23"/>
  <line x1="898" x2="923" y1="177.5" y2="177.5" class="net_23"/>
  <line x1="824.5" x2="923" y1="127.5" y2="127.5" class="net_23"/>
  <line x1="830" x2="923" y1="192.5" y2="192.5" class="net_14"/>
  <line x1="442" x2="477" y1="107.5" y2="107.5" class="net_31"/>
  <line x1="675" x2="799.5" y1="127.5" y2="127.5" class="net_32"/>
  <line x1="502" x2="517" y1="107.5" y2="107.5" class="net_35"/>
  <line x1="517" x2="517" y1="107.5" y2="370.5" class="net_35"/>
  <line x1="517" x2="555.3333333333334" y1="370.5" y2="370.5" class="net_35"/>
  <line x1="507" x2="555.3333333333334" y1="390.5" y2="390.5" class="net_36"/>
  <line x1="40" x2="565.3333333333334" y1="421.5" y2="421.5" class="net_3"/>
  <line x1="565.3333333333334" x2="565.3333333333334" y1="421.5" y2="395.5" class="net_3"/>
  <line x1="40" x2="517" y1="421.5" y2="421.5" class="net_3"/>
  <line x1="517" x2="517" y1="421.5" y2="410.5" class="net_3"/>
  <line x1="517" x2="721" y1="410.5" y2="410.5" class="net_3"/>
  <line x1="721" x2="721" y1="410.5" y2="298" class="net_3"/>
  <circle cx="517" cy="421.5" r="2" style="fill:#000" class="net_3"/>
  <line x1="721" x2="802" y1="298" y2="298" class="net_3"/>
  <line x1="40" x2="92" y1="421.5" y2="421.5" class="net_3"/>
  <line x1="92" x2="92" y1="421.5" y2="147.5" class="net_3"/>
  <circle cx="92" cy="421.5" r="2" style="fill:#000" class="net_3"/>
  <line x1="92" x2="173" y1="147.5" y2="147.5" class="net_3"/>
  <line x1="40" x2="92" y1="421.5" y2="421.5" class="net_3"/>
  <line x1="92" x2="92" y1="421.5" y2="293" class="net_3"/>
  <circle cx="92" cy="293" r="2" style="fill:#000" class="net_3"/>
  <line x1="92" x2="173" y1="293" y2="293" class="net_3"/>
  <line x1="40" x2="82" y1="253" y2="253" class="net_2"/>
  <line x1="82" x2="82" y1="253" y2="12" class="net_2"/>
  <line x1="82" x2="731" y1="12" y2="12" class="net_2"/>
  <line x1="731" x2="731" y1="12" y2="258" class="net_2"/>
  <circle cx="82" cy="253" r="2" style="fill:#000" class="net_2"/>
  <line x1="731" x2="802" y1="258" y2="258" class="net_2"/>
  <line x1="40" x2="82" y1="253" y2="253" class="net_2"/>
  <line x1="82" x2="82" y1="253" y2="107.5" class="net_2"/>
  <circle cx="82" cy="107.5" r="2" style="fill:#000" class="net_2"/>
  <line x1="82" x2="173" y1="107.5" y2="107.5" class="net_2"/>
  <line x1="40" x2="173" y1="253" y2="253" class="net_2"/>
  <line x1="665" x2="731" y1="441.5" y2="441.5" class="net_5,6,7,8,9,10,11,12"/>
  <line x1="731" x2="731" y1="441.5" y2="318" class="net_5,6,7,8,9,10,11,12"/>
  <line x1="731" x2="802" y1="318" y2="318" class="net_5,6,7,8,9,10,11,12"/>
  <line x1="673" x2="802" y1="338" y2="338" class="net_33"/>
  <line x1="673" x2="701" y1="338" y2="338" class="net_33"/>
  <line x1="701" x2="701" y1="338" y2="315.5" class="net_33"/>
  <line x1="701" x2="102" y1="315.5" y2="315.5" class="net_33"/>
  <line x1="102" x2="102" y1="315.5" y2="273" class="net_33"/>
  <circle cx="701" cy="338" r="2" style="fill:#000" class="net_33"/>
  <line x1="102" x2="173" y1="273" y2="273" class="net_33"/>
  <line x1="953" x2="993" y1="185" y2="185" class="net_34"/>
  <line x1="993" x2="993" y1="185" y2="23" class="net_34"/>
  <line x1="993" x2="102" y1="23" y2="23" class="net_34"/>
  <line x1="102" x2="102" y1="23" y2="127.5" class="net_34"/>
  <line x1="102" x2="173" y1="127.5" y2="127.5" class="net_34"/>
  <line x1="833" x2="923" y1="258" y2="258" class="net_15,16,17,18,19,20,21,22"/>
</svg>
