<svg xmlns="http://www.w3.org/2000/svg" width="372" height="167" viewBox="-0.5 -0.5 372 167" xmlns:v="https://vecta.io/nano"><style><![CDATA[.B{stroke:#000}.C{stroke-miterlimit:10}.D{fill:none}.E{pointer-events:none}.F{pointer-events:all}.G{fill:#000}.H{font-family:Helvetica}.I{font-size:12px}.J{pointer-events:stroke}.K{text-anchor:end}.L{text-anchor:middle}.M{stroke-dasharray:3 3}]]></style><g class="B D"><path d="M94.25 23.99h181.11v102.36H94.25z" class="F"/><path d="M255.68 47.61l9.36.01" class="C J"/></g><path d="M270.29 47.63l-7 3.49 1.75-3.5-1.74-3.5z" class="B C F"/><g class="D B"><path d="M247.8 39.73h7.87v15.75h-7.87z" class="F"/><path d="M232.05 47.61h9.39" class="C J"/></g><path d="M246.69 47.61l-7.01 3.5 1.76-3.5-1.75-3.5z" class="B C F"/><rect x="113.94" y="39.73" width="118.11" height="15.75" rx="2.36" class="B D F"/><text x="172.5" y="50.5" class="G H I L">rounding comb. logic</text><g class="B D"><path d="M94.28 106.68h3.94v7.87h-3.94zm-.01-15.76h3.94v7.87h-3.94zm0-15.74h3.94v7.87h-3.94z" class="F"/><path d="M98.2 63.4h47.1v7.8l13.46.02" class="C J"/></g><path d="M164.01 71.23l-7 3.49 1.75-3.5-1.74-3.5z" class="B C F"/><g class="D B"><path d="M94.27 59.44h3.94v7.87h-3.94z" class="F"/><path d="M98.2 47.62l9.37-.01" class="C J"/></g><path d="M112.82 47.61l-6.99 3.5 1.74-3.5-1.75-3.5z" class="B C F"/><g class="D B"><path d="M94.26 43.68h3.94v7.87h-3.94z" class="F"/><path d="M271.42 79.12l-12.12-.02V87l-16.94-.01" class="C J"/></g><path d="M237.11 86.98l7.01-3.49-1.76 3.5 1.75 3.5z" class="B C F"/><g class="D B"><path d="M271.42 75.19h3.94v7.87h-3.94zm-.01-15.75h3.94v7.87h-3.94zm0-15.75h3.94v7.87h-3.94z" class="F"/><path d="M236 71.23l15.3-.03v-7.8l13.75-.01" class="C J"/></g><path d="M270.3 63.38l-7 3.51 1.75-3.5-1.76-3.5z" class="B C F"/><path d="M165.13 86.98L137.3 87v-7.9l-32.73.01" class="B C D J"/><path d="M99.32 79.12l7-3.51-1.75 3.5 1.76 3.5z" class="B C F"/><path d="M165.13 63.36H236v31.5h-70.87z" class="B D F"/><text x="200.5" y="82.5" class="G H I L">ready&amp;valid...</text><path d="M251.73 16.12l.01 23.61" stroke="gray" class="C D J M"/><text x="251.5" y="11.5" class="G H I L">output reg. (optiona...</text><text x="119.5" y="113.5" class="G H I">to each FFs</text><g class="C D E"><path d="M94.25 105.68a2.95 2.95 0 0 1 2.95-2.95h5.91a2.95 2.95 0 0 0 2.95-2.95 2.95 2.95 0 0 0 2.95 2.95h5.91c.78 0 1.53.31 2.08.86.56.56.87 1.31.87 2.09" stroke="#999" transform="matrix(0 -1 -1 0 208.79 208.79)"/><path d="M108.45 102.64l9.41 7.96" stroke="gray" class="M"/><path d="M78.5 110.6h10" class="B"/></g><path d="M93.16 110.61l-7.01 3.48 1.76-3.49-1.74-3.51z" class="B C E"/><text x="76.5" y="113.5" class="G H I K">i_clk</text><g class="B C E"><path d="M78.5 94.9h10" class="D"/><path d="M93.16 94.87l-6.98 3.55 1.73-3.52-1.78-3.48z"/></g><text x="75.5" y="97.5" class="G H I K">i_sync_rst</text><text x="75.5" y="82.5" class="G H I K">o_ready</text><g class="B C E"><path d="M78.49 63.4h9.91" class="D"/><path d="M93.15 63.38l-6.99 3.53 1.74-3.51-1.77-3.49z"/></g><text x="75.5" y="66.5" class="G H I K">i_input_valid</text><g class="B C E"><path d="M78.49 47.7h9.91l-.5.01" class="D"/><path d="M93.15 47.64l-6.96 3.59 1.71-3.52-1.8-3.48z"/></g><text x="75.5" y="50.5" class="G H I K">i_val</text><g class="B C E"><path d="M94.27 79.2H84.3l.56.01" class="D"/><path d="M79.61 79.12l7.06-3.38-1.81 3.47 1.69 3.53z"/><path d="M291.1 79.1h-10" class="D"/><path d="M276.47 79.12l6.99-3.53-1.74 3.51 1.77 3.49z"/></g><text x="292.5" y="82.5" class="G H I">i_ds_ready</text><text x="292.5" y="66.5" class="G H I">o_output_valid</text><text x="292.5" y="50.5" class="G H I">o_val</text><g class="B C E"><path d="M275.35 47.7h9.95" class="D"/><path d="M289.98 47.7l-7 3.5 1.75-3.5-1.75-3.5z"/><path d="M275.35 63.4h9.95" class="D"/><path d="M289.98 63.4l-7 3.5 1.75-3.5-1.75-3.5z"/></g><text x="162.5" y="153.5" class="G H I">Exists only when out...</text><path d="M200.56 94.86l19.65 39.37" stroke="gray" class="C D E M"/></svg>